<svg xmlns="http://www.w3.org/2000/svg" width="666.667" height="666.667" version="1.0" viewBox="0 0 500 500"><path d="M196.9 5.5c-.3 2.1.7 31.5 1.6 51.5.3 4.7.7 15.5 1 24s.7 19.1 1 23.5c.2 4.4.6 16.5 1 27 .3 10.4.8 22.5 1 26.8.4 6.6.2 7.8-1 7.3-1.3-.5-18.1-11.1-86-54.6-14.3-9.1-31.5-20.1-38.3-24.4-6.7-4.4-12.4-7.7-12.6-7.5s-3.9 6.7-8.1 14.4c-14.1 25.4-34.2 61.9-38 69-2.1 3.8-4.6 8.4-5.7 10.2l-1.9 3.2 4.3 2.2c4 2 11.8 6.1 38.3 19.9 6.1 3.1 17.3 9 25 13s18.1 9.4 23 12c5 2.6 16.2 8.5 25 13 14.3 7.4 23.4 12.3 25.8 13.7.5.3-10.8 6.6-25 14S95.7 280.2 88.5 284c-7.1 3.7-17.9 9.4-24 12.5-6 3.2-14.1 7.4-18 9.5-3.8 2.1-13.3 7-21 11s-14.1 7.3-14.2 7.4 6.5 12.3 14.7 27.1c8.3 14.7 15 27 15 27.1 0 .2 1.4 2.7 3.1 5.6 3.8 6.4 5.3 9.1 10.7 18.8 2.2 4.1 5.4 9.9 7 12.8l2.9 5.2 54.4-34.6c29.9-19.1 61-38.9 69.1-44l14.8-9.3-.5 10.7c-.2 5.9-.7 17.4-1 25.7-.3 8.2-.8 18.8-1 23.5s-.7 16.1-1 25.5c-.4 9.3-.8 21-1 26-.5 10.5-1.7 43.1-1.7 46-.1 5.4-4 5 53 5 31.8.1 53-.3 53.4-.9.3-.5.5-1.9.3-3-.2-1.2-.6-10.2-1-20.1-.3-9.9-.8-21.8-1-26.5s-.7-16.6-1-26.5c-.4-9.9-.9-21.8-1-26.5-.2-4.7-.7-15.9-1-25s-.8-20.2-1-24.7c-.3-4.6-.1-8.3.4-8.3.4 0 10.2 6 21.7 13.4 36.1 23.2 77.9 49.9 87 55.6 1.3.8 8.3 5.3 15.5 9.9 12.3 7.9 13.1 8.2 14.4 6.5.8-1.1 1.5-2.5 1.5-3.2 0-.6.5-1.2 1-1.2.6 0 1-.5 1-1.1 0-.9 2.9-6.3 18.5-34.4 1.5-2.8 6.5-11.8 11.1-20 4.5-8.3 10.7-19.5 13.7-25 3.1-5.5 5.5-10 5.4-10.1s-5.8-3.1-12.7-6.7-18.6-9.7-26-13.7c-7.4-3.9-15.7-8.2-18.5-9.6-2.7-1.3-9.5-4.8-15-7.7s-15.2-8-21.5-11.4c-6.3-3.3-18.2-9.5-26.5-13.8-8.2-4.3-16.5-8.6-18.3-9.6l-3.4-1.7 2.4-1.3c1.2-.6 5-2.6 8.3-4.4s12.8-6.7 21-11c8.3-4.3 19.1-9.9 24-12.5 20.4-10.7 32.8-17.2 48-25.1 33.7-17.5 38-19.8 37.7-20.9-.2-.9-12.6-23.8-15.2-28-.5-.8-2.1-3.7-3.5-6.4-1.5-2.7-6.8-12.3-11.9-21.5C449.1 104 445.8 98 438 83.7l-2.6-4.7-45 28.6c-24.7 15.7-45.8 29.1-46.8 29.8-1.1.6-2.5 1.5-3 1.9-.6.4-9.6 6.2-20.1 12.8-10.4 6.6-20 12.7-21.2 13.5l-2.2 1.4.4-9.8c.2-5.3.6-17.1 1-26.2.3-9.1.8-20.3 1-25s.7-16.8 1.1-27c.3-10.2.8-20.5.9-23 .2-2.5.6-14.6 1-27s.9-22.8 1.2-23.3c.6-1 4.1-.9-54-1.1-34.5-.1-52.7.2-52.8.9"/></svg>