<?xml version="1.0" standalone="no"?>
<!DOCTYPE svg PUBLIC "-//W3C//DTD SVG 20010904//EN"
 "http://www.w3.org/TR/2001/REC-SVG-20010904/DTD/svg10.dtd">
<svg version="1.0" xmlns="http://www.w3.org/2000/svg"
 width="500.000000pt" height="500.000000pt" viewBox="0 0 500.000000 500.000000"
 preserveAspectRatio="xMidYMid meet">
<metadata>
Created by potrace 1.11, written by Peter Selinger 2001-2013
</metadata>
<g transform="translate(0.000000,500.000000) scale(0.100000,-0.100000)"
fill="#000000" stroke="none">
<path d="M1969 4945 c-3 -21 7 -315 16 -515 3 -47 7 -155 10 -240 3 -85 7
-191 10 -235 2 -44 6 -165 10 -270 3 -104 8 -225 10 -268 4 -66 2 -78 -10 -73
-13 5 -181 111 -860 546 -143 91 -315 201 -383 244 -67 44 -124 77 -126 75 -2
-2 -39 -67 -81 -144 -141 -254 -342 -619 -380 -690 -21 -38 -46 -84 -57 -102
l-19 -32 43 -22 c40 -20 118 -61 383 -199 61 -31 173 -90 250 -130 77 -40 181
-94 230 -120 50 -26 162 -85 250 -130 143 -74 234 -123 258 -137 5 -3 -108
-66 -250 -140 -142 -74 -316 -165 -388 -203 -71 -37 -179 -94 -240 -125 -60
-32 -141 -74 -180 -95 -38 -21 -133 -70 -210 -110 -77 -40 -141 -73 -142 -74
-1 -1 65 -123 147 -271 83 -147 150 -270 150 -271 0 -2 14 -27 31 -56 38 -64
53 -91 107 -188 22 -41 54 -99 70 -128 l29 -52 544 346 c299 191 610 389 691
440 l148 93 -5 -107 c-2 -59 -7 -174 -10 -257 -3 -82 -8 -188 -10 -235 -2 -47
-7 -161 -10 -255 -4 -93 -8 -210 -10 -260 -5 -105 -17 -431 -17 -460 -1 -54
-40 -50 530 -50 318 -1 530 3 534 9 3 5 5 19 3 30 -2 12 -6 102 -10 201 -3 99
-8 218 -10 265 -2 47 -7 166 -10 265 -4 99 -9 218 -10 265 -2 47 -7 159 -10
250 -3 91 -8 202 -10 247 -3 46 -1 83 4 83 4 0 102 -60 217 -134 361 -232 779
-499 870 -556 13 -8 83 -53 155 -99 123 -79 131 -82 144 -65 8 11 15 25 15 32
0 6 5 12 10 12 6 0 10 5 10 11 0 9 29 63 185 344 15 28 65 118 111 200 45 83
107 195 137 250 31 55 55 100 54 101 -1 1 -58 31 -127 67 -69 36 -186 97 -260
137 -74 39 -157 82 -185 96 -27 13 -95 48 -150 77 -55 29 -152 80 -215 114
-63 33 -182 95 -265 138 -82 43 -165 86 -183 96 l-34 17 24 13 c12 6 50 26 83
44 33 18 128 67 210 110 83 43 191 99 240 125 204 107 328 172 480 251 337
175 380 198 377 209 -2 9 -126 238 -152 280 -5 8 -21 37 -35 64 -15 27 -68
123 -119 215 -85 151 -118 211 -196 354 l-26 47 -450 -286 c-247 -157 -458
-291 -468 -298 -11 -6 -25 -15 -30 -19 -6 -4 -96 -62 -201 -128 -104 -66 -200
-127 -212 -135 l-22 -14 4 98 c2 53 6 171 10 262 3 91 8 203 10 250 2 47 7
168 11 270 3 102 8 205 9 230 2 25 6 146 10 270 4 124 9 228 12 233 6 10 41 9
-540 11 -345 1 -527 -2 -528 -9z"/>
</g>
</svg>
